HIERARCHY
ROOT Hips
{
	OFFSET 0.000000 0.000000 0.000000
	CHANNELS 6 Xposition Yposition Zposition Zrotation Yrotation Xrotation 
	JOINT LowerBack
	{
		OFFSET 0.000000 0.000000 0.000000
		CHANNELS 3 Zrotation Yrotation Xrotation
		JOINT Spine
		{
			OFFSET 0.028270 2.035590 -0.193380
			CHANNELS 3 Zrotation Yrotation Xrotation
			JOINT Spine1
			{
				OFFSET 0.056720 2.048850 -0.042750
				CHANNELS 3 Zrotation Yrotation Xrotation
				JOINT Neck
				{
					OFFSET 0.000000 0.000000 0.000000
					CHANNELS 3 Zrotation Yrotation Xrotation
					JOINT Neck1
					{
						OFFSET -0.054170 1.746240 0.172020
						CHANNELS 3 Zrotation Yrotation Xrotation
						JOINT Head
						{
							OFFSET 0.104070 1.761360 -0.123970
							CHANNELS 3 Zrotation Yrotation Xrotation
							End Site
							{
								OFFSET 0.000000 0.000000 0.000000
							}
						}
					}
				}
				JOINT LeftShoulder
				{
					OFFSET 0.000000 0.000000 0.000000
					CHANNELS 3 Zrotation Yrotation Xrotation
					JOINT LeftArm
					{
						OFFSET 3.362410 1.200890 -0.311210
						CHANNELS 3 Zrotation Yrotation Xrotation
						JOINT LeftForeArm
						{
							OFFSET 4.983000 -0.000000 -0.000000
							CHANNELS 3 Zrotation Yrotation Xrotation
							JOINT LeftHand
							{
								OFFSET 3.483560 -0.000000 -0.000000
								CHANNELS 3 Zrotation Yrotation Xrotation
								JOINT LeftFingerBase
								{
									OFFSET 0.000000 0.000000 0.000000
									CHANNELS 3 Zrotation Yrotation Xrotation
									JOINT LeftHandIndex1
									{
										OFFSET 0.715260 -0.000000 -0.000000
										CHANNELS 3 Zrotation Yrotation Xrotation
										End Site
										{
											OFFSET 0.000000 0.000000 0.000000
										}
									}
								}
								JOINT LThumb
								{
									OFFSET 0.000000 0.000000 0.000000
									CHANNELS 3 Zrotation Yrotation Xrotation
									End Site
									{
										OFFSET 0.000000 0.000000 0.000000
									}
								}
							}
						}
					}
				}
				JOINT RightShoulder
				{
					OFFSET 0.000000 0.000000 0.000000
					CHANNELS 3 Zrotation Yrotation Xrotation
					JOINT RightArm
					{
						OFFSET -3.136600 1.374050 -0.404650
						CHANNELS 3 Zrotation Yrotation Xrotation
						JOINT RightForeArm
						{
							OFFSET -5.241900 -0.000000 -0.000000
							CHANNELS 3 Zrotation Yrotation Xrotation
							JOINT RightHand
							{
								OFFSET -3.444170 -0.000000 -0.000000
								CHANNELS 3 Zrotation Yrotation Xrotation
								JOINT RightFingerBase
								{
									OFFSET 0.000000 0.000000 0.000000
									CHANNELS 3 Zrotation Yrotation Xrotation
									JOINT RightHandIndex1
									{
										OFFSET -0.622530 -0.000000 -0.000000
										CHANNELS 3 Zrotation Yrotation Xrotation
										End Site
										{
											OFFSET 0.000000 0.000000 0.000000
										}
									}
								}
								JOINT RThumb
								{
									OFFSET 0.000000 0.000000 0.000000
									CHANNELS 3 Zrotation Yrotation Xrotation
									End Site
									{
										OFFSET 0.000000 0.000000 0.000000
									}
								}
							}
						}
					}
				}
			}
		}
	}
}
}
MOTION
Frames: 15
Frame Time: 0.008333
3.185252 17.042092 -1.870641 16.173192 -89.590011 -20.864078 -3.393773 -2.696207 -3.618734 -1.027176 -2.550697 -3.147267 -4.382787 -2.610011 1.645766 8.996044 -21.785642 -8.584734 -0.835453 -0.054008 -0.161625 0.000000 0.000000 0.000000 7.468874 15.021983 -0.258344 -60.930761 21.477892 4.645268 -2.329689 -50.118971 0.001597 0.343311 -0.021701 0.000645 -0.113596 0.055701 0.000000 0.000000 0.000000 0.000000 0.000000 0.000000 0.000000 7.824080 -17.429137 -0.778158 65.784175 -9.789465 7.734387 1.937235 48.773486 0.007665 -1.496524 5.043228 -0.071154 0.102353 -0.123603 -0.000000 0.000000 0.000000 0.000000 0.000000 0.000000 0.000000 
3.214180 17.048989 -1.922563 16.647246 -89.648786 -21.430196 -3.502833 -2.648173 -3.547745 -1.066667 -2.496343 -3.141839 -4.435476 -2.554779 1.603842 9.114208 -21.731013 -8.622543 -0.844849 -0.054090 -0.171985 0.000000 0.000000 0.000000 7.779157 14.744221 -0.242879 -60.897870 21.607101 4.487479 -2.318245 -50.193767 0.001650 0.295711 -0.033443 0.000638 -0.112397 0.056359 0.000000 0.000000 0.000000 0.000000 0.000000 0.000000 0.000000 7.951988 -17.317305 -0.747082 65.794723 -9.419660 7.713148 1.916731 48.907581 0.007416 -1.634747 5.076201 -0.077940 0.102921 -0.126742 -0.000000 0.000000 0.000000 0.000000 0.000000 0.000000 0.000000 
3.244292 17.054877 -1.974213 17.446671 -89.712710 -22.328386 -3.612405 -2.603378 -3.457081 -1.106290 -2.445171 -3.132532 -4.490000 -2.502550 1.561583 9.239817 -21.692436 -8.672463 -0.853922 -0.053924 -0.185782 0.000000 0.000000 0.000000 8.077241 14.473960 -0.227022 -60.870209 21.774340 4.341998 -2.304120 -50.314548 0.001703 0.259258 -0.050197 0.000632 -0.111150 0.057005 0.000000 0.000000 0.000000 0.000000 0.000000 0.000000 0.000000 8.093817 -17.221630 -0.711449 65.813210 -8.997110 7.733435 1.899848 49.015129 0.007180 -1.727768 5.078543 -0.082328 0.103190 -0.129508 -0.000000 0.000000 0.000000 0.000000 0.000000 0.000000 0.000000 
3.275173 17.059768 -2.025311 18.486253 -89.775273 -23.469887 -3.723531 -2.565277 -3.351225 -1.145776 -2.400566 -3.119745 -4.545210 -2.456751 1.520363 9.371076 -21.670265 -8.731988 -0.862679 -0.053553 -0.202346 0.000000 0.000000 0.000000 8.358357 14.219651 -0.211466 -60.840226 21.977659 4.225037 -2.287280 -50.482666 0.001753 0.232465 -0.071198 0.000525 -0.109844 0.057604 0.000000 0.000000 0.000000 0.000000 0.000000 0.000000 0.000000 8.248517 -17.145118 -0.673364 65.832185 -8.519872 7.809165 1.886076 49.098155 0.006968 -1.776690 5.053071 -0.084118 0.103158 -0.131884 -0.000000 0.000000 0.000000 0.000000 0.000000 0.000000 0.000000 
3.306556 17.063661 -2.075657 19.666680 -89.828529 -24.753984 -3.838714 -2.536989 -3.234810 -1.185285 -2.365479 -3.103928 -4.600208 -2.420368 1.481371 9.506517 -21.663553 -8.797943 -0.871403 -0.053056 -0.220823 0.000000 0.000000 0.000000 8.619414 13.989095 -0.197023 -60.800957 22.213495 4.151805 -2.267922 -50.695481 0.001801 0.212556 -0.095199 0.000518 -0.108453 0.058103 0.000000 0.000000 0.000000 0.000000 0.000000 0.000000 0.000000 8.416221 -17.089350 -0.635304 65.845523 -7.989156 7.950379 1.874774 49.158963 0.006788 -1.785895 5.005669 -0.083810 0.102841 -0.133885 -0.000000 0.000000 0.000000 0.000000 0.000000 0.000000 0.000000 
3.338195 17.066697 -2.125177 20.880909 -89.862720 -26.072927 -3.964018 -2.521577 -3.110727 -1.225861 -2.342576 -3.085279 -4.654542 -2.396071 1.445368 9.645311 -21.670810 -8.866993 -0.880555 -0.052522 -0.240309 0.000000 0.000000 0.000000 8.858957 13.786259 -0.184484 -60.745768 22.479982 4.133839 -2.246358 -50.950431 0.001846 0.194775 -0.119668 0.000411 -0.106934 0.058435 0.000000 0.000000 0.000000 0.000000 0.000000 0.000000 0.000000 8.598072 -17.055345 -0.599528 65.849564 -7.409400 8.164318 1.865183 49.199709 0.006640 -1.764519 4.943707 -0.081805 0.102307 -0.135544 -0.000000 0.000000 0.000000 0.000000 0.000000 0.000000 0.000000 
3.369535 17.069028 -2.173683 22.028362 -89.874830 -27.318551 -4.101845 -2.518299 -2.989306 -1.267960 -2.331011 -3.065426 -4.707686 -2.383104 1.414120 9.784450 -21.687160 -8.935625 -0.890297 -0.052033 -0.259798 0.000000 0.000000 0.000000 9.081207 13.620547 -0.174408 -60.672984 22.762902 4.187783 -2.223639 -51.229759 0.001891 0.174230 -0.144359 0.000403 -0.105280 0.058543 0.000000 0.000000 0.000000 0.000000 0.000000 0.000000 0.000000 8.790933 -17.038986 -0.568358 65.844536 -6.794250 8.446490 1.856850 49.222772 0.006541 -1.719423 4.879402 -0.078799 0.101595 -0.136941 -0.000000 0.000000 0.000000 0.000000 0.000000 0.000000 0.000000 
3.400647 17.070704 -2.221400 22.995713 -89.852236 -28.383131 -4.263464 -2.529594 -2.866656 -1.314086 -2.332512 -3.043640 -4.760279 -2.383103 1.386709 9.925022 -21.711326 -9.000946 -0.901461 -0.051697 -0.278524 0.000000 0.000000 0.000000 9.286183 13.485901 -0.167476 -60.575456 23.066190 4.313378 -2.199873 -51.536599 0.001934 0.142821 -0.164653 0.000391 -0.103390 0.058349 0.000000 0.000000 0.000000 0.000000 0.000000 0.000000 0.000000 8.998764 -17.040699 -0.543135 65.831580 -6.151084 8.800173 1.848746 49.230654 0.006473 -1.667568 4.821587 -0.075595 0.100843 -0.138150 -0.000000 0.000000 0.000000 0.000000 0.000000 0.000000 0.000000 
3.431126 17.071887 -2.268336 23.730091 -89.793058 -29.208488 -4.452818 -2.552429 -2.749210 -1.365384 -2.343886 -3.021135 -4.812652 -2.392911 1.363924 10.064662 -21.736899 -9.060106 -0.914211 -0.051583 -0.295676 0.000000 0.000000 0.000000 9.481949 13.386432 -0.163820 -60.454281 23.374097 4.519434 -2.176259 -51.850705 0.001981 0.094468 -0.180889 0.000479 -0.101243 0.057813 0.000000 0.000000 0.000000 0.000000 0.000000 0.000000 0.000000 9.218061 -17.053186 -0.525260 65.817082 -5.501650 9.209362 1.840351 49.228333 0.006438 -1.616910 4.781953 -0.072790 0.100097 -0.139278 -0.000000 0.000000 0.000000 0.000000 0.000000 0.000000 0.000000 
3.460921 17.072649 -2.314649 24.198621 -89.691988 -29.763397 -4.676379 -2.584691 -2.635723 -1.423637 -2.362692 -2.997939 -4.865714 -2.410034 1.344974 10.202652 -21.758869 -9.110916 -0.928855 -0.051750 -0.310671 0.000000 0.000000 0.000000 9.674894 13.317855 -0.163386 -60.308492 23.679368 4.804319 -2.153461 -52.162427 0.002034 0.022131 -0.191799 0.000563 -0.098780 0.056903 0.000000 0.000000 0.000000 0.000000 0.000000 0.000000 0.000000 9.447344 -17.070405 -0.515328 65.809437 -4.865907 9.658536 1.830917 49.221816 0.006431 -1.577983 4.768596 -0.070885 0.099424 -0.140430 -0.000000 0.000000 0.000000 0.000000 0.000000 0.000000 0.000000 
3.490090 17.072968 -2.360579 24.366750 -89.544171 -30.014306 -4.939025 -2.624309 -2.522962 -1.490151 -2.386646 -2.973759 -4.919981 -2.432117 1.328888 10.337723 -21.777081 -9.152313 -0.945179 -0.052196 -0.323231 0.000000 0.000000 0.000000 9.866397 13.272060 -0.166141 -60.136817 23.979758 5.159028 -2.131830 -52.469303 0.002094 -0.080631 -0.196199 0.000844 -0.095942 0.055602 0.000000 0.000000 0.000000 0.000000 0.000000 0.000000 0.000000 9.682882 -17.091363 -0.513053 65.815788 -4.256799 10.141189 1.819724 49.214282 0.006433 -1.566048 4.787929 -0.070679 0.098959 -0.141696 -0.000000 0.000000 0.000000 0.000000 0.000000 0.000000 0.000000 
3.518760 17.072770 -2.406191 24.255002 -89.348939 -29.984484 -5.242107 -2.667468 -2.407466 -1.565577 -2.411971 -2.948349 -4.975954 -2.455311 1.314625 10.468012 -21.789789 -9.183533 -0.962687 -0.052888 -0.333185 0.000000 0.000000 0.000000 10.060121 13.243290 -0.171731 -59.940731 24.267233 5.574384 -2.111823 -52.763282 0.002160 -0.217294 -0.194868 0.001121 -0.092705 0.053933 0.000000 0.000000 0.000000 0.000000 0.000000 0.000000 0.000000 9.918779 -17.112280 -0.518047 65.845747 -3.691411 10.643167 1.806181 49.211489 0.006431 -1.589847 4.843567 -0.072471 0.098764 -0.143161 -0.000000 0.000000 0.000000 0.000000 0.000000 0.000000 0.000000 
3.546998 17.072029 -2.451610 23.957949 -89.108994 -29.770945 -5.585053 -2.708947 -2.283706 -1.650319 -2.433644 -2.921138 -5.034578 -2.474496 1.301099 10.591990 -21.791060 -9.203732 -0.981071 -0.053812 -0.340385 0.000000 0.000000 0.000000 10.262102 13.226895 -0.179229 -59.725573 24.530609 6.037039 -2.094148 -53.031895 0.002237 -0.388784 -0.190761 0.001395 -0.089095 0.051939 0.000000 0.000000 0.000000 0.000000 0.000000 0.000000 0.000000 10.149098 -17.124171 -0.529672 65.910669 -3.191900 11.136736 1.790111 49.222005 0.006415 -1.647228 4.933558 -0.076363 0.098789 -0.144877 -0.000000 0.000000 0.000000 0.000000 0.000000 0.000000 0.000000 
3.575101 17.070551 -2.496876 23.517682 -88.828682 -29.420360 -5.964417 -2.744397 -2.145337 -1.743928 -2.447700 -2.891375 -5.095966 -2.485601 1.287103 10.707850 -21.781130 -9.213047 -0.999506 -0.054892 -0.344937 0.000000 0.000000 0.000000 10.471255 13.216837 -0.188028 -59.494954 24.765745 6.527623 -2.078945 -53.272192 0.002321 -0.592546 -0.185615 0.001765 -0.085157 0.049685 0.000000 0.000000 0.000000 0.000000 0.000000 0.000000 0.000000 10.366756 -17.124826 -0.546813 66.017961 -2.768015 11.611258 1.771325 49.250871 0.006371 -1.740378 5.053183 -0.082451 0.099044 -0.146862 -0.000000 0.000000 0.000000 0.000000 0.000000 0.000000 0.000000 
3.603169 17.068221 -2.541891 23.000456 -88.516669 -29.000525 -6.374210 -2.768659 -1.985823 -1.845376 -2.449544 -2.858148 -5.160079 -2.483912 1.272208 10.813674 -21.761842 -9.211818 -1.017032 -0.056038 -0.347000 0.000000 0.000000 0.000000 10.684548 13.208781 -0.197610 -59.254695 24.969466 7.023483 -2.066392 -53.481370 0.002402 -0.822581 -0.181464 0.002234 -0.080992 0.047236 0.000000 0.000000 0.000000 0.000000 0.000000 0.000000 0.000000 10.564205 -17.113788 -0.568001 66.173093 -2.423270 12.058712 1.750149 49.300539 0.006287 -1.867301 5.195861 -0.090738 0.099527 -0.149100 -0.000000 0.000000 0.000000 0.000000 0.000000 0.000000 0.000000 
